<?xml version="1.0" encoding="UTF-8" standalone="no"?>
<!-- Created with Inkscape (http://www.inkscape.org/) -->

<svg
   xmlns:dc="http://purl.org/dc/elements/1.1/"
   xmlns:cc="http://creativecommons.org/ns#"
   xmlns:rdf="http://www.w3.org/1999/02/22-rdf-syntax-ns#"
   xmlns:svg="http://www.w3.org/2000/svg"
   xmlns="http://www.w3.org/2000/svg"
   xmlns:xlink="http://www.w3.org/1999/xlink"
   xmlns:sodipodi="http://sodipodi.sourceforge.net/DTD/sodipodi-0.dtd"
   xmlns:inkscape="http://www.inkscape.org/namespaces/inkscape"
   inkscape:export-ydpi="90.000000"
   inkscape:export-xdpi="90.000000"
   inkscape:export-filename="C:\Users\Brad Landis\Desktop\present.png"
   width="48px"
   height="48px"
   id="svg11300"
   sodipodi:version="0.32"
   inkscape:version="0.48.0 r9654"
   sodipodi:docname="present.svg"
   version="1.1">
  <defs
     id="defs3"><linearGradient
   inkscape:collect="always"
   id="linearGradient10020">
  <stop
     style="stop-color:#ffffff;stop-opacity:1;"
     offset="0"
     id="stop10022" />
  <stop
     style="stop-color:#ffffff;stop-opacity:0;"
     offset="1"
     id="stop10024" />
</linearGradient>
<linearGradient
   id="linearGradient6719">
  <stop
     style="stop-color:#73d216;stop-opacity:1;"
     offset="0"
     id="stop6721" />
  <stop
     style="stop-color:#d5f7b3;stop-opacity:1.0000000;"
     offset="1.0000000"
     id="stop6723" />
</linearGradient>
<linearGradient
   id="linearGradient6711">
  <stop
     style="stop-color:#5b8ccb;stop-opacity:1.0000000;"
     offset="0.0000000"
     id="stop6713" />
  <stop
     style="stop-color:#3465a4;stop-opacity:1.0000000;"
     offset="1.0000000"
     id="stop6715" />
</linearGradient>
<linearGradient
   id="linearGradient6699">
  <stop
     style="stop-color:#ff7171;stop-opacity:1.0000000;"
     offset="0.0000000"
     id="stop6701" />
  <stop
     style="stop-color:#cc0000;stop-opacity:1.0000000;"
     offset="1.0000000"
     id="stop6703" />
</linearGradient>
<linearGradient
   inkscape:collect="always"
   id="linearGradient9214">
  <stop
     style="stop-color:#5b5b5b;stop-opacity:1;"
     offset="0"
     id="stop9216" />
  <stop
     style="stop-color:#5b5b5b;stop-opacity:0;"
     offset="1"
     id="stop9218" />
</linearGradient>
<linearGradient
   y2="11.0039"
   x2="20.9453"
   y1="25.4727"
   x1="27.2949"
   gradientUnits="userSpaceOnUse"
   id="aigrd5">
  <stop
     id="stop13012"
     style="stop-color:#f5f5f5;stop-opacity:1;"
     offset="0" />
  <stop
     id="stop13014"
     style="stop-color:#e1e1e1;stop-opacity:1;"
     offset="1" />
</linearGradient>
<linearGradient
   inkscape:collect="always"
   xlink:href="#aigrd5"
   id="linearGradient1553"
   gradientUnits="userSpaceOnUse"
   gradientTransform="matrix(1.868867,0,0,1.5088,-20.39097,-10.01652)"
   x1="27.2949"
   y1="25.4727"
   x2="20.9453"
   y2="11.0039" />
<linearGradient
   y2="10.4377"
   x2="24.6035"
   y1="9.3433"
   x1="24.6035"
   gradientUnits="userSpaceOnUse"
   id="aigrd6">
  <stop
     id="stop13035"
     style="stop-color:#F0F0F0"
     offset="0" />
  <stop
     id="stop13037"
     style="stop-color:#686868"
     offset="1" />
</linearGradient>
<radialGradient
   gradientUnits="userSpaceOnUse"
   fy="30.9912"
   fx="24.7744"
   r="0.5902"
   cy="30.9912"
   cx="24.7744"
   id="aigrd7">
  <stop
     id="stop13046"
     style="stop-color:#F0F0F0"
     offset="0" />
  <stop
     id="stop13048"
     style="stop-color:#848484"
     offset="1" />
</radialGradient>
<radialGradient
   inkscape:collect="always"
   xlink:href="#aigrd7"
   id="radialGradient1537"
   gradientUnits="userSpaceOnUse"
   gradientTransform="matrix(3.502527,0,0,3.502527,-61.93009,-72.87696)"
   cx="24.7744"
   cy="30.9912"
   fx="24.7744"
   fy="30.9912"
   r="0.5902" />
<radialGradient
   inkscape:collect="always"
   xlink:href="#linearGradient9214"
   id="radialGradient9220"
   cx="26.162951"
   cy="44.022526"
   fx="26.162951"
   fy="44.022526"
   r="12.197592"
   gradientTransform="matrix(1,0,0,0.181159,-2.871401e-15,36.04743)"
   gradientUnits="userSpaceOnUse" />
<linearGradient
   inkscape:collect="always"
   xlink:href="#aigrd6"
   id="linearGradient9224"
   gradientUnits="userSpaceOnUse"
   gradientTransform="matrix(1.905258,0,0,2.521777,-22.82065,-13.24604)"
   x1="24.919374"
   y1="6.1478682"
   x2="24.919374"
   y2="7.4600263" />
<linearGradient
   inkscape:collect="always"
   xlink:href="#linearGradient10020"
   id="linearGradient10026"
   x1="23.379572"
   y1="28.369167"
   x2="24.24518"
   y2="6.0000024"
   gradientUnits="userSpaceOnUse" />





		
		
		
		
		
		
		
	











<linearGradient
   id="aigrd3"
   gradientUnits="userSpaceOnUse"
   x1="21.9326"
   y1="24.6274"
   x2="21.9326"
   y2="7.1091"
   style="stroke-dasharray:none;stroke-miterlimit:4.0000000;stroke-width:1.2166667">
			<stop
   offset="0"
   style="stop-color:#D0D6E5;stroke-dasharray:none;stroke-miterlimit:4.0000000;stroke-width:1.2166667"
   id="stop16199" />





			<stop
   offset="1"
   style="stop-color:#093A80;stroke-dasharray:none;stroke-miterlimit:4.0000000;stroke-width:1.2166667"
   id="stop16201" />





		</linearGradient>





		
		
		
		
		
		<linearGradient
   id="aigrd2"
   gradientUnits="userSpaceOnUse"
   x1="21.877"
   y1="30.3413"
   x2="21.9168"
   y2="22.5769"
   style="stroke-dasharray:none;stroke-miterlimit:4.0000000;stroke-width:1.2166667">
			<stop
   offset="0.0000000"
   style="stop-color:#5e4f07;stop-opacity:1.0000000;"
   id="stop16184" />





			<stop
   offset="1.0000000"
   style="stop-color:#348a31;stop-opacity:1.0000000;"
   id="stop16186" />





		</linearGradient>





		
		<linearGradient
   id="aigrd1"
   gradientUnits="userSpaceOnUse"
   x1="12.4873"
   y1="3.7319"
   x2="31.0813"
   y2="36.0328"
   style="stroke-dasharray:none;stroke-miterlimit:4.0000000;stroke-width:1.2166667">
			<stop
   offset="0"
   style="stop-color:#D2D2D2;stroke-dasharray:none;stroke-miterlimit:4.0000000;stroke-width:1.2166667"
   id="stop16177" />





			<stop
   offset="1"
   style="stop-color:#EDEDED;stroke-dasharray:none;stroke-miterlimit:4.0000000;stroke-width:1.2166667"
   id="stop16179" />





		</linearGradient>

		
		<linearGradient
   id="linearGradient2392">
  <stop
     style="stop-color:#715b26;stop-opacity:1.0000000;"
     offset="0.0000000"
     id="stop2394" />
  <stop
     style="stop-color:#312710;stop-opacity:1.0000000;"
     offset="1.0000000"
     id="stop2396" />
</linearGradient>
<linearGradient
   style="stroke-dasharray:none;stroke-miterlimit:4.0000000;stroke-width:1.2166667"
   y2="7.1091"
   x2="21.9326"
   y1="24.6274"
   x1="21.9326"
   gradientUnits="userSpaceOnUse"
   id="linearGradient7648">
			<stop
   id="stop7650"
   style="stop-color:#8595bc;stop-opacity:1;"
   offset="0" />





			<stop
   id="stop7652"
   style="stop-color:#041a3b;stop-opacity:1;"
   offset="1" />





		</linearGradient>
<linearGradient
   id="linearGradient2224">
  <stop
     id="stop2226"
     offset="0"
     style="stop-color:#7c7c7c;stop-opacity:1;" />
  <stop
     id="stop2228"
     offset="1"
     style="stop-color:#b8b8b8;stop-opacity:1;" />
</linearGradient>
<linearGradient
   id="linearGradient8155"
   inkscape:collect="always">
  <stop
     id="stop8157"
     offset="0"
     style="stop-color:#ffffff;stop-opacity:1;" />
  <stop
     id="stop8159"
     offset="1"
     style="stop-color:#ffffff;stop-opacity:0;" />
</linearGradient>
<linearGradient
   id="linearGradient8171">
  <stop
     id="stop8173"
     offset="0"
     style="stop-color:#bbbdba;stop-opacity:1;" />
  <stop
     id="stop8175"
     offset="1"
     style="stop-color:#70746e;stop-opacity:1;" />
</linearGradient>
<linearGradient
   inkscape:collect="always"
   xlink:href="#linearGradient7648"
   id="linearGradient3321"
   gradientUnits="userSpaceOnUse"
   gradientTransform="matrix(1.098989,0,0,-0.797757,-1.953865,37.324)"
   x1="21.9326"
   y1="24.627399"
   x2="21.9326"
   y2="7.1090999" />
<linearGradient
   inkscape:collect="always"
   xlink:href="#aigrd3"
   id="linearGradient3323"
   gradientUnits="userSpaceOnUse"
   gradientTransform="matrix(1.098989,0,0,1.106697,-1.953865,-4.922453)"
   x1="21.9326"
   y1="24.6274"
   x2="21.9326"
   y2="7.1091" />
<radialGradient
   inkscape:collect="always"
   xlink:href="#linearGradient8155"
   id="radialGradient3325"
   gradientUnits="userSpaceOnUse"
   gradientTransform="matrix(1.710531,0,0,1.124849,-63.428247,-4.5009883)"
   cx="12.700491"
   cy="10.404876"
   fx="12.700491"
   fy="10.404876"
   r="19.96875" />
</defs>
  <sodipodi:namedview
     stroke="#ef2929"
     fill="#eeeeec"
     id="base"
     pagecolor="#ffffff"
     bordercolor="#666666"
     borderopacity="0.25490196"
     inkscape:pageopacity="0.0"
     inkscape:pageshadow="2"
     inkscape:zoom="11.5625"
     inkscape:cx="15.844001"
     inkscape:cy="35.527694"
     inkscape:current-layer="layer1"
     showgrid="false"
     inkscape:grid-bbox="true"
     inkscape:document-units="px"
     inkscape:showpageshadow="false"
     inkscape:window-width="972"
     inkscape:window-height="727"
     inkscape:window-x="1541"
     inkscape:window-y="160"
     inkscape:window-maximized="0" />
  <metadata
     id="metadata4">
    <rdf:RDF>
      <cc:Work
         rdf:about="">
        <dc:format>image/svg+xml</dc:format>
        <dc:type
           rdf:resource="http://purl.org/dc/dcmitype/StillImage" />
        <dc:creator>
          <cc:Agent>
            <dc:title>Jakub Steiner</dc:title>
          </cc:Agent>
        </dc:creator>
        <dc:source>http://jimmac.musichall.cz</dc:source>
        <cc:license
           rdf:resource="http://creativecommons.org/licenses/by-sa/2.0/" />
        <dc:title></dc:title>
      </cc:Work>
      <cc:License
         rdf:about="http://creativecommons.org/licenses/by-sa/2.0/">
        <cc:permits
           rdf:resource="http://web.resource.org/cc/Reproduction" />
        <cc:permits
           rdf:resource="http://web.resource.org/cc/Distribution" />
        <cc:requires
           rdf:resource="http://web.resource.org/cc/Notice" />
        <cc:requires
           rdf:resource="http://web.resource.org/cc/Attribution" />
        <cc:permits
           rdf:resource="http://web.resource.org/cc/DerivativeWorks" />
        <cc:requires
           rdf:resource="http://web.resource.org/cc/ShareAlike" />
      </cc:License>
    </rdf:RDF>
  </metadata>
  <g
     id="layer1"
     inkscape:label="Layer 1"
     inkscape:groupmode="layer">
    <path
       inkscape:r_cy="true"
       inkscape:r_cx="true"
       id="path10010"
       d="M 26.482036,37.621562 L 24.499994,37.621562 L 24.499994,6 L 26.482036,6 L 26.482036,37.620112 L 26.482036,37.621562 z "
       style="fill:#a4a4a4;fill-rule:nonzero;stroke:#555753;stroke-miterlimit:4;stroke-opacity:1" />
    <path
       style="fill:#a4a4a4;fill-rule:nonzero;stroke:none;stroke-miterlimit:4"
       d="M 26,37.621562 L 24.982042,37.621562 L 24.982042,6 L 26,6 L 26,37.620112 L 26,37.621562 z "
       id="path13009"
       inkscape:r_cx="true"
       inkscape:r_cy="true" />
    <path
       style="fill:url(#linearGradient1553);fill-rule:nonzero;stroke:#888a85;stroke-linejoin:round;stroke-miterlimit:4;stroke-opacity:1"
       d="M 43.499996,32.499982 L 7.5000001,32.499982 L 7.5000001,5.4999944 L 43.499996,5.4999944 L 43.499996,32.499982 L 43.499996,32.499982 z "
       id="path13016"
       inkscape:r_cx="true"
       inkscape:r_cy="true" />
    <path
       sodipodi:type="arc"
       style="opacity:0.39010991;color:#000000;fill:url(#radialGradient9220);fill-opacity:1;fill-rule:nonzero;stroke:none;stroke-width:0.5;stroke-linecap:round;stroke-linejoin:miter;marker:none;marker-start:none;marker-mid:none;marker-end:none;stroke-miterlimit:4;stroke-dasharray:none;stroke-dashoffset:0;stroke-opacity:1;visibility:visible;display:inline;overflow:visible"
       id="path8339"
       sodipodi:cx="26.162951"
       sodipodi:cy="44.022526"
       sodipodi:rx="12.197592"
       sodipodi:ry="2.2097087"
       d="M 38.360542 44.022526 A 12.197592 2.2097087 0 1 1  13.965359,44.022526 A 12.197592 2.2097087 0 1 1  38.360542 44.022526 z"
       inkscape:r_cx="true"
       inkscape:r_cy="true"
       transform="matrix(1.749254,0,0,1.452548,-20.38301,-20.43749)" />
    <g
       transform="matrix(1.539016,0,0,1.539016,-12.89862,-11.05731)"
       style="fill:#a4a4a4;fill-rule:nonzero;stroke:#555753;stroke-miterlimit:4;stroke-opacity:1"
       id="g13020"
       inkscape:r_cx="true"
       inkscape:r_cy="true">
      <path
         d="M 31.492,35.959 L 25.217,31.321 L 25.151306,31.665948 L 30.016,35.955 L 31.492,35.959 z "
         id="path13022"
         inkscape:r_cx="true"
         inkscape:r_cy="true"
         style="stroke:#555753;stroke-opacity:1"
         sodipodi:nodetypes="ccccc" />
      <path
         d="M 18.408,35.959 L 24.683,31.321 L 24.63283,31.72338 L 19.883,35.955 L 18.408,35.959 z "
         id="path13024"
         inkscape:r_cx="true"
         inkscape:r_cy="true"
         style="stroke:#555753;stroke-opacity:1"
         sodipodi:nodetypes="ccccc" />
    </g>
    <path
       inkscape:r_cy="true"
       inkscape:r_cx="true"
       id="path10018"
       d="M 42.483508,31.500001 L 8.4999999,31.500001 L 8.4999999,6.5000025 L 42.483508,6.5000025 L 42.483508,31.500001 L 42.483508,31.500001 z "
       style="fill:none;fill-rule:nonzero;stroke:url(#linearGradient10026);stroke-linejoin:miter;stroke-miterlimit:4;stroke-opacity:1" />
    <path
       style="opacity:0.15999995;fill:#000000;fill-rule:nonzero;stroke:none;stroke-miterlimit:4"
       d="M 37.64607,5.8376811 L 8,5.8376811 L 8,8 C 9.671372,5.6514612 37.64607,5.8376811 37.64607,5.8376811 z "
       id="path13041"
       inkscape:r_cx="true"
       inkscape:r_cy="true" />
    <rect
       style="opacity:1;color:#000000;fill:url(#linearGradient9224);fill-opacity:1;fill-rule:nonzero;stroke:#555753;stroke-width:1;stroke-linecap:butt;stroke-linejoin:miter;marker:none;marker-start:none;marker-mid:none;marker-end:none;stroke-miterlimit:4;stroke-dasharray:none;stroke-dashoffset:0;stroke-opacity:1;visibility:visible;display:inline;overflow:visible"
       id="rect9222"
       width="40.779099"
       height="4"
       x="5.1403117"
       y="1.5"
       inkscape:r_cx="true"
       inkscape:r_cy="true"
       rx="1.941476"
       ry="1.9414761" />
    <g
       inkscape:r_cy="true"
       inkscape:r_cx="true"
       id="g10004"
       style="fill:#a4a4a4;fill-rule:nonzero;stroke:none;stroke-miterlimit:4"
       transform="matrix(1.539016,0,0,1.539016,-12.89862,-11.05731)">
      <path
         inkscape:r_cy="true"
         inkscape:r_cx="true"
         id="path10006"
         d="M 30.015,35.956 L 31.492,35.959 L 25.217,31.321 L 24.778,31.307 L 30.016,35.955 L 30.015,35.956 z " />
      <path
         inkscape:r_cy="true"
         inkscape:r_cx="true"
         id="path10008"
         d="M 19.884,35.956 L 18.408,35.959 L 24.683,31.321 L 25.121,31.307 L 19.883,35.955 L 19.884,35.956 z " />
    </g>
    <path
       style="fill:url(#radialGradient1537);fill-rule:nonzero;stroke:#555753;stroke-miterlimit:4;stroke-opacity:1"
       d="M 27.839689,36.499985 C 27.839689,37.792418 26.79243,38.839676 25.499998,38.839676 C 24.207565,38.839676 23.160308,37.792418 23.160308,36.499985 C 23.160308,35.211057 24.207565,34.1603 25.499998,34.1603 C 26.79243,34.1603 27.839689,35.211057 27.839689,36.499985 z "
       id="path13050"
       inkscape:r_cx="true"
       inkscape:r_cy="true" />
    <g
       id="g3301"
       transform="matrix(0.79831259,0,0,0.79831259,48.544689,6.0785766)">
      <g
         transform="matrix(1.054774,0,0,1.049989,-52.674564,-1.8185583)"
         id="g7654">
        <path
           style="fill:url(#linearGradient3321);fill-opacity:1;fill-rule:nonzero;stroke:none"
           d="m 5.512695,30 34.130539,0 0,-10.372625 -34.130539,0 0,10.372625 z"
           id="path7644"
           inkscape:connector-curvature="0" />
        <path
           id="path16203"
           d="m 5.512695,5.237844 34.130539,0 0,14.389531 -34.130539,0 0,-14.389531 z"
           style="fill:url(#linearGradient3323);fill-rule:nonzero;stroke:none"
           inkscape:connector-curvature="0" />
        <g
           transform="matrix(1.189217,0,0,1.189217,-3.525355,-6.535408)"
           style="fill-rule:nonzero;stroke:#000000;stroke-width:1.15611064;stroke-miterlimit:4"
           id="g16205">
			<g
   id="g16207">
				<path
   id="path16209"
   d="m 18.4,15.4 c 0,2.2 -1.8,4.1 -4.1,4.1 -2.2,0 -4.1,-1.8 -4.1,-4.1 0,-2.2 1.8,-4.1 4.1,-4.1 2.2,0 4.1,1.8 4.1,4.1 z"
   style="opacity:0.04999994;fill:#e8f52f;stroke:none"
   inkscape:connector-curvature="0" />





				<path
   id="path16211"
   d="m 18,15.4 c 0,2 -1.6,3.7 -3.7,3.7 -2,0 -3.7,-1.6 -3.7,-3.7 0,-2 1.6,-3.7 3.7,-3.7 2,0 3.7,1.6 3.7,3.7 l 0,0 z"
   style="opacity:0.20829994;fill:#ecf751;stroke:none"
   inkscape:connector-curvature="0" />





				<path
   id="path16213"
   d="m 17.6,15.4 c 0,1.8 -1.5,3.3 -3.3,3.3 -1.8,0 -3.3,-1.5 -3.3,-3.3 0,-1.8 1.5,-3.3 3.3,-3.3 1.8,0 3.3,1.5 3.3,3.3 l 0,0 z"
   style="opacity:0.36669994;fill:#f0f972;stroke:none"
   inkscape:connector-curvature="0" />





				<path
   id="path16215"
   d="m 17.2,15.4 c 0,1.6 -1.3,2.9 -2.9,2.9 -1.6,0 -2.9,-1.3 -2.9,-2.9 0,-1.6 1.3,-2.9 2.9,-2.9 1.6,0 2.9,1.3 2.9,2.9 z"
   style="opacity:0.525;fill:#f4fa95;stroke:none"
   inkscape:connector-curvature="0" />





				<path
   id="path16217"
   d="m 16.8,15.4 c 0,1.4 -1.1,2.5 -2.5,2.5 -1.4,0 -2.5,-1.1 -2.5,-2.5 0,-1.4 1.1,-2.5 2.5,-2.5 1.4,0 2.5,1.1 2.5,2.5 l 0,0 z"
   style="opacity:0.6833;fill:#f7fcb7;stroke:none"
   inkscape:connector-curvature="0" />





				<path
   id="path16219"
   d="m 16.4,15.4 c 0,1.2 -1,2.1 -2.1,2.1 -1.1,0 -2.1,-1 -2.1,-2.1 0,-1.1 1,-2.1 2.1,-2.1 1.1,0 2.1,1 2.1,2.1 z"
   style="opacity:0.8417;fill:#fbfddb;stroke:none"
   inkscape:connector-curvature="0" />





				<path
   id="path16221"
   d="m 16,15.4 c 0,1 -0.8,1.8 -1.8,1.8 -1,0 -1.8,-0.8 -1.8,-1.8 0,-1 0.8,-1.8 1.8,-1.8 1,0 1.8,0.8 1.8,1.8 l 0,0 z"
   style="fill:#ffffff;stroke:none"
   inkscape:connector-curvature="0" />





			</g>





		</g>
        <path
           id="path16223"
           d="m 25.015859,21.649044 8.681289,0 1.664904,0.475688 -2.854121,0 c 0,0 2.854121,0.237842 4.281184,2.021669 1.427059,1.664904 -1.664905,3.686575 -1.664905,3.686575 0,0 0,0 0,0 -0.118922,-0.356766 -0.832454,-3.210889 -2.259514,-4.400106 -1.070297,-0.951374 -2.259514,-1.189218 -2.259514,-1.189218 l -5.589323,0 0,-0.475686 0,-0.118922 z"
           style="opacity:0.3;fill-rule:nonzero;stroke:none"
           inkscape:connector-curvature="0" />
        <path
           id="path16225"
           d="m 30.724106,22.362574 -4.994715,0 9.275897,5.232557 -4.281182,-5.232557 0,0 z"
           style="opacity:0.3;fill-rule:nonzero;stroke:none"
           inkscape:connector-curvature="0" />
        <path
           id="path16227"
           d="m 25.015859,21.767966 8.681289,0 1.30814,-0.832453 -2.854121,0 c 0,0 2.616276,-0.475686 2.973043,-3.448731 0.356763,-2.973043 -4.043341,-6.302851 -4.043341,-6.302851 0,0 0,0 0,0.118922 0.118921,0.71353 1.308138,5.708243 0.475688,7.610993 -0.356767,1.664901 -1.427062,2.021667 -1.427062,2.021667 l -5.470401,0 0.237844,0.832453 0.118921,0 z"
           style="fill:#515151;fill-rule:nonzero;stroke:none"
           inkscape:connector-curvature="0" />
        <path
           id="path16229"
           d="m 30.248418,20.459827 -4.994714,0 5.946086,-9.038054 -0.951372,9.038054 z"
           style="fill:#515151;fill-rule:nonzero;stroke:none"
           inkscape:connector-curvature="0" />
      </g>
      <rect
         y="4.1964297"
         x="-46.359917"
         height="25.0625"
         width="35.0625"
         id="rect8163"
         style="opacity:0.84659095;color:#000000;fill:none;stroke:#4f4f4f;stroke-width:1;stroke-linecap:butt;stroke-linejoin:miter;stroke-miterlimit:4;stroke-opacity:1;stroke-dasharray:none;stroke-dashoffset:0;marker:none;visibility:visible;display:inline;overflow:visible" />
      <path
         sodipodi:nodetypes="ccccc"
         id="rect8150"
         d="m -48.797417,1.6964297 0,22.0625003 c 22.326079,0.888361 24.822134,-13.0625 39.9375,-13.0625 l 0,-9.0000003 -39.9375,0 z"
         style="opacity:0.30113639;color:#000000;fill:url(#radialGradient3325);fill-opacity:1;fill-rule:nonzero;stroke:none;stroke-width:1;marker:none;visibility:visible;display:inline;overflow:visible"
         inkscape:connector-curvature="0" />
    </g>
  </g>
</svg>
