<?xml version="1.0" encoding="UTF-8" standalone="no"?>
<!-- Created with Inkscape (http://www.inkscape.org/) -->

<svg
   xmlns:dc="http://purl.org/dc/elements/1.1/"
   xmlns:cc="http://creativecommons.org/ns#"
   xmlns:rdf="http://www.w3.org/1999/02/22-rdf-syntax-ns#"
   xmlns:svg="http://www.w3.org/2000/svg"
   xmlns="http://www.w3.org/2000/svg"
   xmlns:xlink="http://www.w3.org/1999/xlink"
   xmlns:sodipodi="http://sodipodi.sourceforge.net/DTD/sodipodi-0.dtd"
   xmlns:inkscape="http://www.inkscape.org/namespaces/inkscape"
   inkscape:export-ydpi="90.000000"
   inkscape:export-xdpi="90.000000"
   inkscape:export-filename="C:\Users\Brad Landis\Desktop\hide.png"
   width="48px"
   height="48px"
   id="svg11300"
   sodipodi:version="0.32"
   inkscape:version="0.48.0 r9654"
   sodipodi:docname="hide.svg"
   version="1.1">
  <defs
     id="defs3"><linearGradient
   inkscape:collect="always"
   id="linearGradient10020">
  <stop
     style="stop-color:#ffffff;stop-opacity:1;"
     offset="0"
     id="stop10022" />
  <stop
     style="stop-color:#ffffff;stop-opacity:0;"
     offset="1"
     id="stop10024" />
</linearGradient>
<linearGradient
   id="linearGradient6719">
  <stop
     style="stop-color:#73d216;stop-opacity:1;"
     offset="0"
     id="stop6721" />
  <stop
     style="stop-color:#d5f7b3;stop-opacity:1.0000000;"
     offset="1.0000000"
     id="stop6723" />
</linearGradient>
<linearGradient
   id="linearGradient6711">
  <stop
     style="stop-color:#5b8ccb;stop-opacity:1.0000000;"
     offset="0.0000000"
     id="stop6713" />
  <stop
     style="stop-color:#3465a4;stop-opacity:1.0000000;"
     offset="1.0000000"
     id="stop6715" />
</linearGradient>
<linearGradient
   id="linearGradient6699">
  <stop
     style="stop-color:#ff7171;stop-opacity:1.0000000;"
     offset="0.0000000"
     id="stop6701" />
  <stop
     style="stop-color:#cc0000;stop-opacity:1.0000000;"
     offset="1.0000000"
     id="stop6703" />
</linearGradient>
<linearGradient
   inkscape:collect="always"
   id="linearGradient9214">
  <stop
     style="stop-color:#5b5b5b;stop-opacity:1;"
     offset="0"
     id="stop9216" />
  <stop
     style="stop-color:#5b5b5b;stop-opacity:0;"
     offset="1"
     id="stop9218" />
</linearGradient>
<linearGradient
   y2="11.0039"
   x2="20.9453"
   y1="25.4727"
   x1="27.2949"
   gradientUnits="userSpaceOnUse"
   id="aigrd5">
  <stop
     id="stop13012"
     style="stop-color:#f5f5f5;stop-opacity:1;"
     offset="0" />
  <stop
     id="stop13014"
     style="stop-color:#e1e1e1;stop-opacity:1;"
     offset="1" />
</linearGradient>
<linearGradient
   inkscape:collect="always"
   xlink:href="#aigrd5"
   id="linearGradient1553"
   gradientUnits="userSpaceOnUse"
   gradientTransform="matrix(1.868867,0,0,1.5088,-20.39097,-10.01652)"
   x1="27.2949"
   y1="25.4727"
   x2="20.9453"
   y2="11.0039" />
<linearGradient
   y2="10.4377"
   x2="24.6035"
   y1="9.3433"
   x1="24.6035"
   gradientUnits="userSpaceOnUse"
   id="aigrd6">
  <stop
     id="stop13035"
     style="stop-color:#F0F0F0"
     offset="0" />
  <stop
     id="stop13037"
     style="stop-color:#686868"
     offset="1" />
</linearGradient>
<radialGradient
   gradientUnits="userSpaceOnUse"
   fy="30.9912"
   fx="24.7744"
   r="0.5902"
   cy="30.9912"
   cx="24.7744"
   id="aigrd7">
  <stop
     id="stop13046"
     style="stop-color:#F0F0F0"
     offset="0" />
  <stop
     id="stop13048"
     style="stop-color:#848484"
     offset="1" />
</radialGradient>
<radialGradient
   inkscape:collect="always"
   xlink:href="#aigrd7"
   id="radialGradient1537"
   gradientUnits="userSpaceOnUse"
   gradientTransform="matrix(3.502527,0,0,3.502527,-61.93009,-72.87696)"
   cx="24.7744"
   cy="30.9912"
   fx="24.7744"
   fy="30.9912"
   r="0.5902" />
<radialGradient
   inkscape:collect="always"
   xlink:href="#linearGradient9214"
   id="radialGradient9220"
   cx="26.162951"
   cy="44.022526"
   fx="26.162951"
   fy="44.022526"
   r="12.197592"
   gradientTransform="matrix(1,0,0,0.181159,-2.871401e-15,36.04743)"
   gradientUnits="userSpaceOnUse" />
<linearGradient
   inkscape:collect="always"
   xlink:href="#aigrd6"
   id="linearGradient9224"
   gradientUnits="userSpaceOnUse"
   gradientTransform="matrix(1.905258,0,0,2.521777,-22.82065,-13.24604)"
   x1="24.919374"
   y1="6.1478682"
   x2="24.919374"
   y2="7.4600263" />
<linearGradient
   inkscape:collect="always"
   xlink:href="#linearGradient10020"
   id="linearGradient10026"
   x1="23.379572"
   y1="28.369167"
   x2="24.24518"
   y2="6.0000024"
   gradientUnits="userSpaceOnUse" />





		
		
		
		
		
		
		
	











<linearGradient
   id="aigrd3"
   gradientUnits="userSpaceOnUse"
   x1="21.9326"
   y1="24.6274"
   x2="21.9326"
   y2="7.1091"
   style="stroke-dasharray:none;stroke-miterlimit:4.0000000;stroke-width:1.2166667">
			<stop
   offset="0"
   style="stop-color:#D0D6E5;stroke-dasharray:none;stroke-miterlimit:4.0000000;stroke-width:1.2166667"
   id="stop16199" />





			<stop
   offset="1"
   style="stop-color:#093A80;stroke-dasharray:none;stroke-miterlimit:4.0000000;stroke-width:1.2166667"
   id="stop16201" />





		</linearGradient>





		
		
		
		
		
		<linearGradient
   id="aigrd2"
   gradientUnits="userSpaceOnUse"
   x1="21.877"
   y1="30.3413"
   x2="21.9168"
   y2="22.5769"
   style="stroke-dasharray:none;stroke-miterlimit:4.0000000;stroke-width:1.2166667">
			<stop
   offset="0.0000000"
   style="stop-color:#5e4f07;stop-opacity:1.0000000;"
   id="stop16184" />





			<stop
   offset="1.0000000"
   style="stop-color:#348a31;stop-opacity:1.0000000;"
   id="stop16186" />





		</linearGradient>





		
		<linearGradient
   id="aigrd1"
   gradientUnits="userSpaceOnUse"
   x1="12.4873"
   y1="3.7319"
   x2="31.0813"
   y2="36.0328"
   style="stroke-dasharray:none;stroke-miterlimit:4.0000000;stroke-width:1.2166667">
			<stop
   offset="0"
   style="stop-color:#D2D2D2;stroke-dasharray:none;stroke-miterlimit:4.0000000;stroke-width:1.2166667"
   id="stop16177" />





			<stop
   offset="1"
   style="stop-color:#EDEDED;stroke-dasharray:none;stroke-miterlimit:4.0000000;stroke-width:1.2166667"
   id="stop16179" />





		</linearGradient>

		
		<linearGradient
   id="linearGradient2392">
  <stop
     style="stop-color:#715b26;stop-opacity:1.0000000;"
     offset="0.0000000"
     id="stop2394" />
  <stop
     style="stop-color:#312710;stop-opacity:1.0000000;"
     offset="1.0000000"
     id="stop2396" />
</linearGradient>
<linearGradient
   style="stroke-dasharray:none;stroke-miterlimit:4.0000000;stroke-width:1.2166667"
   y2="7.1091"
   x2="21.9326"
   y1="24.6274"
   x1="21.9326"
   gradientUnits="userSpaceOnUse"
   id="linearGradient7648">
			<stop
   id="stop7650"
   style="stop-color:#8595bc;stop-opacity:1;"
   offset="0" />





			<stop
   id="stop7652"
   style="stop-color:#041a3b;stop-opacity:1;"
   offset="1" />





		</linearGradient>
<linearGradient
   id="linearGradient2224">
  <stop
     id="stop2226"
     offset="0"
     style="stop-color:#7c7c7c;stop-opacity:1;" />
  <stop
     id="stop2228"
     offset="1"
     style="stop-color:#b8b8b8;stop-opacity:1;" />
</linearGradient>
<linearGradient
   id="linearGradient8155"
   inkscape:collect="always">
  <stop
     id="stop8157"
     offset="0"
     style="stop-color:#ffffff;stop-opacity:1;" />
  <stop
     id="stop8159"
     offset="1"
     style="stop-color:#ffffff;stop-opacity:0;" />
</linearGradient>
<linearGradient
   id="linearGradient8171">
  <stop
     id="stop8173"
     offset="0"
     style="stop-color:#bbbdba;stop-opacity:1;" />
  <stop
     id="stop8175"
     offset="1"
     style="stop-color:#70746e;stop-opacity:1;" />
</linearGradient>
<linearGradient
   inkscape:collect="always"
   xlink:href="#linearGradient7648"
   id="linearGradient3321"
   gradientUnits="userSpaceOnUse"
   gradientTransform="matrix(1.098989,0,0,-0.797757,-1.953865,37.324)"
   x1="21.9326"
   y1="24.627399"
   x2="21.9326"
   y2="7.1090999" />
<linearGradient
   inkscape:collect="always"
   xlink:href="#aigrd3"
   id="linearGradient3323"
   gradientUnits="userSpaceOnUse"
   gradientTransform="matrix(1.098989,0,0,1.106697,-1.953865,-4.922453)"
   x1="21.9326"
   y1="24.6274"
   x2="21.9326"
   y2="7.1091" />
<radialGradient
   inkscape:collect="always"
   xlink:href="#linearGradient8155"
   id="radialGradient3325"
   gradientUnits="userSpaceOnUse"
   gradientTransform="matrix(1.710531,0,0,1.124849,-63.428247,-4.5009883)"
   cx="12.700491"
   cy="10.404876"
   fx="12.700491"
   fy="10.404876"
   r="19.96875" />
<radialGradient
   inkscape:collect="always"
   xlink:href="#linearGradient8155"
   id="radialGradient3417"
   gradientUnits="userSpaceOnUse"
   gradientTransform="matrix(1.3655384,0,0,0.89798112,-2.0908791,2.485381)"
   cx="12.700491"
   cy="10.404876"
   fx="12.700491"
   fy="10.404876"
   r="19.96875" />
<linearGradient
   inkscape:collect="always"
   xlink:href="#linearGradient7648"
   id="linearGradient3436"
   gradientUnits="userSpaceOnUse"
   gradientTransform="matrix(1.098989,0,0,-0.797757,-1.953865,37.324)"
   x1="21.9326"
   y1="24.627399"
   x2="21.9326"
   y2="7.1090999" />
<linearGradient
   inkscape:collect="always"
   xlink:href="#aigrd3"
   id="linearGradient3438"
   gradientUnits="userSpaceOnUse"
   gradientTransform="matrix(1.098989,0,0,1.106697,-1.953865,-4.922453)"
   x1="21.9326"
   y1="24.6274"
   x2="21.9326"
   y2="7.1091" />
<linearGradient
   inkscape:collect="always"
   xlink:href="#aigrd3"
   id="linearGradient3454"
   gradientUnits="userSpaceOnUse"
   gradientTransform="matrix(0.92539199,0,0,0.92765494,4.8486898,0.5007028)"
   x1="21.9326"
   y1="24.6274"
   x2="21.9326"
   y2="7.1091" />
<linearGradient
   inkscape:collect="always"
   xlink:href="#linearGradient7648"
   id="linearGradient3457"
   gradientUnits="userSpaceOnUse"
   gradientTransform="matrix(0.92539199,0,0,-0.66869543,4.8486898,35.912501)"
   x1="21.9326"
   y1="24.627399"
   x2="21.9326"
   y2="7.1090999" />
<radialGradient
   gradientTransform="matrix(-0.7988298,0.07667792,-0.03200596,-0.3334379,53.946913,1.6114579)"
   gradientUnits="userSpaceOnUse"
   xlink:href="#G1"
   id="R9"
   fy="-3.5973825"
   fx="29.495701"
   r="9.750001"
   cy="-3.5973825"
   cx="29.495701" />
<radialGradient
   gradientTransform="matrix(1.0249592,0.00838735,-0.00872225,0.9898042,1.2754643,-3.4342756)"
   gradientUnits="userSpaceOnUse"
   xlink:href="#G4"
   id="R8"
   fy="27.468206"
   fx="16.357241"
   r="11.05701"
   cy="27.468206"
   cx="16.357241" />
<radialGradient
   gradientTransform="matrix(0.6056649,0.551086,-0.313263,0.3495356,13.582145,6.0888501)"
   gradientUnits="userSpaceOnUse"
   xlink:href="#G2"
   id="R7"
   fy="19.022348"
   fx="9.6232567"
   r="11.05701"
   cy="24.748089"
   cx="9.7957067" />
<linearGradient
   gradientTransform="matrix(0.9456547,0.04095475,-0.04171466,0.949375,3.2709546,-2.808759)"
   gradientUnits="userSpaceOnUse"
   xlink:href="#G4"
   id="G7"
   y2="18.547888"
   x2="7.2131085"
   y1="38.802361"
   x1="25.127941" />
<radialGradient
   gradientTransform="matrix(1.0945361,0.0051153,-0.0049669,0.9433728,-0.7720082,-1.480212)"
   gradientUnits="userSpaceOnUse"
   xlink:href="#G3"
   id="R6"
   fy="33.479305"
   fx="23.261456"
   r="11.05701"
   cy="33.479305"
   cx="23.261456" />
<radialGradient
   gradientTransform="matrix(1.0808455,0.04680964,-0.03084368,0.7019647,0.4234683,-14.350401)"
   gradientUnits="userSpaceOnUse"
   xlink:href="#G5"
   id="R5"
   fy="63.965389"
   fx="15.115514"
   r="12.289036"
   cy="63.965389"
   cx="15.115514" />
<radialGradient
   gradientTransform="matrix(1.1014046,0.04770002,-0.03084368,0.7019647,15.085209,-6.7691401)"
   gradientUnits="userSpaceOnUse"
   xlink:href="#G5"
   id="R4"
   fy="60.043758"
   fx="13.292242"
   r="12.289036"
   cy="63.965389"
   cx="15.115514" />
<radialGradient
   gradientTransform="matrix(0.3650513,-0.5609361,1.4421477,0.9385381,10.519018,23.382758)"
   gradientUnits="userSpaceOnUse"
   xlink:href="#G1"
   id="R3"
   fy="11.680827"
   fx="41.771999"
   r="4.9179087"
   cy="11.364712"
   cx="41.247238" />
<linearGradient
   gradientUnits="userSpaceOnUse"
   xlink:href="#G4"
   id="G6"
   y2="23.322678"
   x2="22.733898"
   y1="46.025867"
   x1="42.550949" />
<radialGradient
   gradientTransform="matrix(0.7893072,0.4930809,-0.2597058,0.4157284,13.249074,5.1887365)"
   gradientUnits="userSpaceOnUse"
   xlink:href="#G2"
   id="R2"
   fy="25.064268"
   fx="22.505642"
   r="12.011442"
   cy="30.310101"
   cx="25.346392" />
<radialGradient
   gradientTransform="matrix(1.097181,-0.06040066,0.05995679,1.0724194,-4.7989161,-0.4395409)"
   gradientUnits="userSpaceOnUse"
   xlink:href="#G4"
   id="R1"
   fy="32.026119"
   fx="33.921108"
   r="12.011442"
   cy="32.026119"
   cx="33.921108" />
<linearGradient
   id="G5">
  <stop
     offset="0"
     style="stop-color:#000;stop-opacity:1"
     id="s9" />
  <stop
     offset="1"
     style="stop-color:#000;stop-opacity:0"
     id="s10" />
</linearGradient>
<linearGradient
   id="G4">
  <stop
     offset="0"
     style="stop-color:#d50f0f;stop-opacity:1"
     id="s7" />
  <stop
     offset="1"
     style="stop-color:#860000;stop-opacity:1"
     id="s8" />
</linearGradient>
<linearGradient
   id="G3">
  <stop
     offset="0"
     style="stop-color:#000;stop-opacity:1"
     id="s5" />
  <stop
     offset="1"
     style="stop-color:#000;stop-opacity:0"
     id="s6" />
</linearGradient>
<linearGradient
   id="G2">
  <stop
     offset="0"
     style="stop-color:#fff;stop-opacity:1"
     id="s3" />
  <stop
     offset="1"
     style="stop-color:#fff;stop-opacity:0"
     id="s4" />
</linearGradient>
<linearGradient
   id="G1">
  <stop
     offset="0"
     style="stop-color:#59a40f;stop-opacity:1"
     id="s1" />
  <stop
     offset="1"
     style="stop-color:#306102;stop-opacity:1"
     id="s2" />
</linearGradient>
</defs>
  <sodipodi:namedview
     stroke="#ef2929"
     fill="#eeeeec"
     id="base"
     pagecolor="#ffffff"
     bordercolor="#666666"
     borderopacity="0.25490196"
     inkscape:pageopacity="0.0"
     inkscape:pageshadow="2"
     inkscape:zoom="8.1759222"
     inkscape:cx="20.999557"
     inkscape:cy="26.803237"
     inkscape:current-layer="layer1"
     showgrid="false"
     inkscape:grid-bbox="true"
     inkscape:document-units="px"
     inkscape:showpageshadow="false"
     inkscape:window-width="911"
     inkscape:window-height="727"
     inkscape:window-x="1688"
     inkscape:window-y="160"
     inkscape:window-maximized="0" />
  <metadata
     id="metadata4">
    <rdf:RDF>
      <cc:Work
         rdf:about="">
        <dc:format>image/svg+xml</dc:format>
        <dc:type
           rdf:resource="http://purl.org/dc/dcmitype/StillImage" />
        <dc:creator>
          <cc:Agent>
            <dc:title>Jakub Steiner</dc:title>
          </cc:Agent>
        </dc:creator>
        <dc:source>http://jimmac.musichall.cz</dc:source>
        <cc:license
           rdf:resource="http://creativecommons.org/licenses/by-sa/2.0/" />
        <dc:title></dc:title>
      </cc:Work>
      <cc:License
         rdf:about="http://creativecommons.org/licenses/by-sa/2.0/">
        <cc:permits
           rdf:resource="http://web.resource.org/cc/Reproduction" />
        <cc:permits
           rdf:resource="http://web.resource.org/cc/Distribution" />
        <cc:requires
           rdf:resource="http://web.resource.org/cc/Notice" />
        <cc:requires
           rdf:resource="http://web.resource.org/cc/Attribution" />
        <cc:permits
           rdf:resource="http://web.resource.org/cc/DerivativeWorks" />
        <cc:requires
           rdf:resource="http://web.resource.org/cc/ShareAlike" />
      </cc:License>
    </rdf:RDF>
  </metadata>
  <g
     id="layer1"
     inkscape:label="Layer 1"
     inkscape:groupmode="layer">
    <path
       inkscape:r_cy="true"
       inkscape:r_cx="true"
       id="path10010"
       d="M 26.482036,37.621562 L 24.499994,37.621562 L 24.499994,6 L 26.482036,6 L 26.482036,37.620112 L 26.482036,37.621562 z "
       style="fill:#a4a4a4;fill-rule:nonzero;stroke:#555753;stroke-miterlimit:4;stroke-opacity:1" />
    <path
       style="fill:#a4a4a4;fill-rule:nonzero;stroke:none;stroke-miterlimit:4"
       d="M 26,37.621562 L 24.982042,37.621562 L 24.982042,6 L 26,6 L 26,37.620112 L 26,37.621562 z "
       id="path13009"
       inkscape:r_cx="true"
       inkscape:r_cy="true" />
    <path
       style="fill:url(#linearGradient1553);fill-rule:nonzero;stroke:#888a85;stroke-linejoin:round;stroke-miterlimit:4;stroke-opacity:1"
       d="M 43.499996,32.499982 L 7.5000001,32.499982 L 7.5000001,5.4999944 L 43.499996,5.4999944 L 43.499996,32.499982 L 43.499996,32.499982 z "
       id="path13016"
       inkscape:r_cx="true"
       inkscape:r_cy="true" />
    <path
       sodipodi:type="arc"
       style="opacity:0.39010991;color:#000000;fill:url(#radialGradient9220);fill-opacity:1;fill-rule:nonzero;stroke:none;stroke-width:0.5;stroke-linecap:round;stroke-linejoin:miter;marker:none;marker-start:none;marker-mid:none;marker-end:none;stroke-miterlimit:4;stroke-dasharray:none;stroke-dashoffset:0;stroke-opacity:1;visibility:visible;display:inline;overflow:visible"
       id="path8339"
       sodipodi:cx="26.162951"
       sodipodi:cy="44.022526"
       sodipodi:rx="12.197592"
       sodipodi:ry="2.2097087"
       d="M 38.360542 44.022526 A 12.197592 2.2097087 0 1 1  13.965359,44.022526 A 12.197592 2.2097087 0 1 1  38.360542 44.022526 z"
       inkscape:r_cx="true"
       inkscape:r_cy="true"
       transform="matrix(1.749254,0,0,1.452548,-20.38301,-20.43749)" />
    <g
       transform="matrix(1.539016,0,0,1.539016,-12.89862,-11.05731)"
       style="fill:#a4a4a4;fill-rule:nonzero;stroke:#555753;stroke-miterlimit:4;stroke-opacity:1"
       id="g13020"
       inkscape:r_cx="true"
       inkscape:r_cy="true">
      <path
         d="M 31.492,35.959 L 25.217,31.321 L 25.151306,31.665948 L 30.016,35.955 L 31.492,35.959 z "
         id="path13022"
         inkscape:r_cx="true"
         inkscape:r_cy="true"
         style="stroke:#555753;stroke-opacity:1"
         sodipodi:nodetypes="ccccc" />
      <path
         d="M 18.408,35.959 L 24.683,31.321 L 24.63283,31.72338 L 19.883,35.955 L 18.408,35.959 z "
         id="path13024"
         inkscape:r_cx="true"
         inkscape:r_cy="true"
         style="stroke:#555753;stroke-opacity:1"
         sodipodi:nodetypes="ccccc" />
    </g>
    <path
       inkscape:r_cy="true"
       inkscape:r_cx="true"
       id="path10018"
       d="M 42.483508,31.500001 L 8.4999999,31.500001 L 8.4999999,6.5000025 L 42.483508,6.5000025 L 42.483508,31.500001 L 42.483508,31.500001 z "
       style="fill:none;fill-rule:nonzero;stroke:url(#linearGradient10026);stroke-linejoin:miter;stroke-miterlimit:4;stroke-opacity:1" />
    <path
       style="opacity:0.15999995;fill:#000000;fill-rule:nonzero;stroke:none;stroke-miterlimit:4"
       d="M 37.64607,5.8376811 L 8,5.8376811 L 8,8 C 9.671372,5.6514612 37.64607,5.8376811 37.64607,5.8376811 z "
       id="path13041"
       inkscape:r_cx="true"
       inkscape:r_cy="true" />
    <rect
       style="opacity:1;color:#000000;fill:url(#linearGradient9224);fill-opacity:1;fill-rule:nonzero;stroke:#555753;stroke-width:1;stroke-linecap:butt;stroke-linejoin:miter;marker:none;marker-start:none;marker-mid:none;marker-end:none;stroke-miterlimit:4;stroke-dasharray:none;stroke-dashoffset:0;stroke-opacity:1;visibility:visible;display:inline;overflow:visible"
       id="rect9222"
       width="40.779099"
       height="4"
       x="5.1403117"
       y="1.5"
       inkscape:r_cx="true"
       inkscape:r_cy="true"
       rx="1.941476"
       ry="1.9414761" />
    <g
       inkscape:r_cy="true"
       inkscape:r_cx="true"
       id="g10004"
       style="fill:#a4a4a4;fill-rule:nonzero;stroke:none;stroke-miterlimit:4"
       transform="matrix(1.539016,0,0,1.539016,-12.89862,-11.05731)">
      <path
         inkscape:r_cy="true"
         inkscape:r_cx="true"
         id="path10006"
         d="M 30.015,35.956 L 31.492,35.959 L 25.217,31.321 L 24.778,31.307 L 30.016,35.955 L 30.015,35.956 z " />
      <path
         inkscape:r_cy="true"
         inkscape:r_cx="true"
         id="path10008"
         d="M 19.884,35.956 L 18.408,35.959 L 24.683,31.321 L 25.121,31.307 L 19.883,35.955 L 19.884,35.956 z " />
    </g>
    <path
       style="fill:url(#radialGradient1537);fill-rule:nonzero;stroke:#555753;stroke-miterlimit:4;stroke-opacity:1"
       d="M 27.839689,36.499985 C 27.839689,37.792418 26.79243,38.839676 25.499998,38.839676 C 24.207565,38.839676 23.160308,37.792418 23.160308,36.499985 C 23.160308,35.211057 24.207565,34.1603 25.499998,34.1603 C 26.79243,34.1603 27.839689,35.211057 27.839689,36.499985 z "
       id="path13050"
       inkscape:r_cx="true"
       inkscape:r_cy="true" />
    <g
       id="g4312"
       transform="matrix(0.48882714,0,0,0.48882714,13.680203,7.3040206)">
      <path
         style="fill:url(#R5)"
         id="path4259"
         d="M 28.070622,31.833858 C 27.862715,36.598861 21.74574,40.204546 14.408959,39.886802 7.0721776,39.569058 1.2946986,35.448243 1.5055256,30.683368 1.7134327,25.918365 7.830407,22.31268 15.167188,22.630424 c 7.336781,0.317744 13.114261,4.438558 12.903434,9.203434 l 0,0 z"
         inkscape:connector-curvature="0" />
      <path
         style="fill:url(#R4)"
         id="path4261"
         d="m 43.295775,39.439519 c -0.207879,4.765004 -6.437978,8.36579 -13.914314,8.042002 -7.476337,-0.323787 -13.36694,-4.449501 -13.156085,-9.214376 0.207879,-4.765003 6.437978,-8.36579 13.914314,-8.042002 7.476336,0.323788 13.36694,4.449502 13.156085,9.214376 l 0,0 z"
         inkscape:connector-curvature="0" />
      <g
         id="cherry1">
        <path
           style="fill:url(#R8);stroke:#520000"
           id="p1"
           d="M 23.835864,30.313446 C 20.3266,34.745493 13.750112,37.426651 9.2045239,34.027454 3.9349828,31.823812 3.1501279,24.940523 5.4324993,19.808122 c 2.5635189,-5.76462 8.1349067,-6.618003 14.2693627,-3.116229 6.134453,3.501778 8.075541,8.643559 4.134002,13.621553 z"
           inkscape:connector-curvature="0" />
        <path
           style="opacity:0.66000001;fill:url(#R7);stroke:#520000"
           id="p2"
           d="M 23.835864,30.313446 C 20.3266,34.745493 13.750112,37.426651 9.2045239,34.027454 3.9349828,31.823812 3.1501279,24.940523 5.4324993,19.808122 c 2.5635189,-5.76462 8.1349067,-6.618003 14.2693627,-3.116229 6.134453,3.501778 8.075541,8.643559 4.134002,13.621553 z"
           inkscape:connector-curvature="0" />
        <path
           style="fill:none;stroke:url(#G7)"
           id="p3"
           d="m 12.677627,15.595635 c -4.2954133,0.128084 -6.4033233,3.738112 -7.1326048,6.981594 -1.0576304,4.703817 0.4641236,9.228628 4.2269864,10.623419 3.3642544,2.685912 8.6911344,1.057484 11.9031124,-2.017887 3.105949,-2.973855 4.225221,-6.053196 2.265473,-9.344724 -1.655439,-2.90808 -6.896197,-6.261542 -11.262967,-6.242402 z"
           inkscape:connector-curvature="0" />
        <path
           style="fill:none;stroke:#520000"
           id="p4"
           d="m 15.809853,16.254682 c -0.410357,2.183341 2.730353,4.455747 5.52119,3.060608"
           inkscape:connector-curvature="0" />
        <path
           style="fill:url(#R6)"
           id="path4268"
           d="M 24.554584,30.151668 C 20.331363,35.791952 13.422872,37.798896 8.8772843,34.3997 3.6077432,32.196058 3.1501279,24.940523 5.4324993,19.808122 c 2.5635189,-5.76462 8.3726127,-7.016468 14.5302327,-3.555589 6.463972,3.625349 8.162684,9.15455 4.591852,13.899135 z"
           inkscape:connector-curvature="0" />
      </g>
      <g
         id="cherry2"
         transform="matrix(0.9200696,0.0398467,-0.04074278,0.9272562,3.8008343,-2.2928083)">
        <path
           style="fill:url(#R1);stroke:#520000"
           id="p5"
           d="m 41.737504,37.155718 c -2.279722,6.288872 -8.636377,11.670921 -14.976424,9.411231 -6.70613,-0.642133 -10.13411,-8.200552 -9.485159,-14.85215 0.72889,-7.470957 6.639519,-10.416091 14.793381,-8.602451 8.153861,1.813641 12.228746,6.979824 9.668202,14.04337 z"
           inkscape:connector-curvature="0" />
        <path
           style="opacity:0.66000001;fill:url(#R2);stroke:#520000"
           id="p6"
           d="m 41.711204,37.144794 c -2.277279,6.295786 -8.627121,11.683751 -14.960373,9.421577 -6.698943,-0.642839 -10.123249,-8.209567 -9.474994,-14.868477 0.728109,-7.47917 6.632404,-10.427541 14.777527,-8.611908 8.145122,1.815635 12.21564,6.987497 9.65784,14.058808 z"
           inkscape:connector-curvature="0" />
        <path
           style="fill:none;stroke:url(#G6)"
           id="p7"
           d="m 26.576435,23.697387 c -3.07205,0.155699 -5.787765,1.525561 -7.161646,4.252889 -2.536789,5.035851 -0.534722,11.521311 1.70598,14.298856 2.676736,3.324223 4.934282,3.044001 6.227098,3.37753 4.357162,1.420678 8.868153,-1.071186 11.727552,-5.604975 4.783396,-7.584431 1.766894,-12.681507 -4.479051,-15.087571 -2.496318,-0.961632 -5.266809,-1.376265 -8.019933,-1.236729 z"
           inkscape:connector-curvature="0" />
        <path
           style="fill:none;stroke:#520000"
           id="p8"
           d="m 27.84062,23.746953 c -0.601384,3.336063 4.88838,5.213413 6.335518,2.000743"
           inkscape:connector-curvature="0" />
      </g>
      <g
         id="leaf1"
         transform="matrix(0.9200696,0.0398467,-0.04662574,1.0611452,3.8131591,-2.5733061)">
        <path
           style="fill:url(#R9);stroke:#2d5a00"
           id="p9"
           d="m 24.613318,3.4222499 c 4.379842,-2.7467726 13.961143,0.2358344 13.961143,0.2358344 0,0 -7.194349,6.7152987 -10.797264,5.9843217 -3.083646,-0.6308716 -11.58128,-5.2338955 -11.58128,-5.2338955 0,0 4.589896,1.4036024 8.417401,-0.9862606 z"
           inkscape:connector-curvature="0" />
        <path
           style="fill:none;stroke:#59aa0a;stroke-miterlimit:9"
           id="p10"
           d="m 20.413638,5.5583702 c 3.252501,1.6506296 6.390266,2.9191585 6.970787,3.1115861 2.6918,0.8922622 7.755537,-3.3330921 9.323126,-4.624991 C 34.642329,3.5332745 28.625909,2.3936932 25.633428,3.8848101 24.582684,4.4084018 22.613312,5.4368054 20.413638,5.5583702 z"
           inkscape:connector-curvature="0" />
      </g>
      <path
         style="fill:#4e9a06;stroke:#275000"
         id="stem"
         d="m 39.492989,2.2868919 c 0,0 -1.663653,1.1485775 -1.663653,1.1485775 C 20.796693,9.194841 19.072733,17.520073 16.788922,17.4624 c 0.573766,1.140433 1.701147,1.362794 3.205379,1.461167 -1.850565,-2.009471 5.445208,-9.7165329 16.533011,-13.83938 -4.263221,6.054925 -5.302973,17.436646 -6.801301,17.559445 1.201227,0.812468 1.916787,1.134446 3.176197,0.486306 -1.201171,-1.319018 0.915683,-12.05067 4.911308,-18.0747898 0,0 2.724897,-1.647666 2.724897,-1.647666 L 39.492989,2.2868919 z"
         inkscape:connector-curvature="0" />
      <g
         id="leaf2"
         transform="matrix(0.9200696,0.0398467,-0.04078582,0.9282356,3.8028823,-2.3394195)">
        <path
           style="fill:url(#R3);stroke:#2d5a00"
           id="p11"
           d="m 39.150684,3.4294307 c -0.231607,1.1725256 -0.737803,2.1469717 5.65175,5.6215444 2.956888,1.6079249 0.964183,5.0964169 0.410371,9.7184059 C 40.134558,14.021326 34.803501,8.698987 39.150684,3.4294307 z"
           inkscape:connector-curvature="0" />
        <path
           style="fill:none;stroke:#59aa0a"
           id="p12"
           d="m 38.775684,5.9606807 c -0.125,0.25 -0.788081,2.0597804 0.715085,4.7895463 0.987771,1.945642 3.283821,4.336522 5.050161,6.019154 0.725687,-3.731364 1.518337,-5.789898 -0.051,-6.749656 C 43.82263,9.6116214 42.049642,8.6903056 40.814794,7.8229764 39.164909,6.6641346 38.775684,5.9606807 38.775684,5.9606807 z"
           inkscape:connector-curvature="0" />
      </g>
    </g>
  </g>
</svg>
